<?xml version="1.0" standalone="no"?>
<!DOCTYPE svg PUBLIC "-//W3C//DTD SVG 20010904//EN"
 "http://www.w3.org/TR/2001/REC-SVG-20010904/DTD/svg10.dtd">
<svg version="1.0" xmlns="http://www.w3.org/2000/svg"
 width="1459.000000pt" height="1459.000000pt" viewBox="0 0 1459.000000 1459.000000"
 preserveAspectRatio="xMidYMid meet">
<metadata>
Created by potrace 1.14, written by Peter Selinger 2001-2017
</metadata>
<g transform="translate(0.000000,1459.000000) scale(0.100000,-0.100000)"
fill="#000000" stroke="none">
<path d="M10 7293 l0 -2673 2684 0 2684 0 -2 162 c-1 135 -3 161 -16 163 -8 1
-62 5 -120 9 -230 14 -383 43 -598 115 -155 52 -230 85 -412 184 -52 28 -269
173 -280 186 -3 3 -30 26 -60 51 -85 70 -225 211 -315 321 -32 38 -165 226
-165 232 0 3 -10 22 -23 40 -24 35 -109 203 -145 287 -42 97 -106 300 -126
400 -27 137 -35 192 -43 295 -9 115 -9 275 0 390 61 774 526 1479 1219 1849
177 95 414 184 563 212 11 2 40 8 65 13 41 10 85 17 150 26 57 8 179 18 240
19 l65 2 0 194 0 195 -2682 1 -2683 1 0 -2674z"/>
<path d="M9222 9772 l3 -196 55 -2 c93 -4 224 -14 247 -18 11 -3 43 -8 70 -11
206 -29 544 -145 723 -248 25 -15 59 -34 75 -43 267 -149 567 -434 751 -713
131 -198 243 -441 299 -648 30 -111 30 -110 50 -218 14 -75 19 -108 30 -225 6
-61 6 -325 1 -375 -3 -22 -8 -65 -11 -95 -58 -563 -382 -1148 -840 -1517 -160
-128 -399 -270 -585 -347 -59 -24 -271 -93 -307 -100 -36 -6 -70 -14 -91 -20
-9 -3 -37 -8 -62 -11 -24 -4 -47 -8 -50 -10 -3 -2 -41 -7 -84 -10 -43 -4 -85
-9 -95 -10 -9 -2 -53 -4 -98 -4 l-83 -1 0 -165 0 -165 2683 0 2684 0 0 2674 0
2673 -2684 0 -2683 0 2 -195z"/>
<path d="M5308 8405 c-2 -2 -30 -5 -63 -8 -181 -17 -388 -99 -550 -219 -108
-80 -223 -209 -297 -333 -104 -174 -149 -336 -154 -550 -2 -127 12 -272 33
-325 4 -8 7 -17 8 -20 76 -284 295 -549 570 -695 71 -38 212 -89 274 -100 19
-3 37 -7 40 -9 13 -8 151 -18 231 -17 551 3 1033 433 1108 988 9 68 8 254 -2
320 -49 318 -233 601 -511 788 -117 79 -311 150 -465 171 -39 6 -218 12 -222
9z"/>
<path d="M9148 8405 c-2 -1 -31 -5 -64 -8 -365 -35 -725 -289 -886 -627 -41
-85 -83 -205 -94 -265 -4 -22 -9 -49 -12 -60 -2 -11 -6 -83 -8 -161 -5 -251
52 -445 193 -655 165 -248 459 -439 744 -485 24 -3 55 -8 69 -11 36 -5 240 -4
270 2 14 3 39 7 55 10 143 22 301 86 445 181 85 56 234 201 289 283 37 54 122
212 128 236 2 6 12 35 22 65 53 151 72 399 42 555 -75 392 -330 706 -696 857
-83 34 -179 60 -275 74 -37 5 -218 13 -222 9z"/>
</g>
</svg>
